<mxfile host="app.diagrams.net" modified="2021-03-23T06:34:57.133Z" agent="5.0 (Windows NT 10.0; Win64; x64) AppleWebKit/537.36 (KHTML, like Gecko) Chrome/89.0.4389.90 Safari/537.36" etag="cEt97pKwYX7pNQOTFN8C" version="14.4.9" type="github">
  <diagram id="N1nZuwe4dEsTJA2ugXbe" name="Page-1">
    <mxGraphModel dx="1422" dy="762" grid="1" gridSize="10" guides="1" tooltips="1" connect="1" arrows="1" fold="1" page="1" pageScale="1" pageWidth="850" pageHeight="1100" math="0" shadow="0">
      <root>
        <mxCell id="0" />
        <mxCell id="1" parent="0" />
        <mxCell id="bljcUaeu1qeNAfJ_IJkw-1" value="&lt;span style=&quot;color: rgb(39 , 50 , 57) ; font-family: , sans-serif ; font-weight: 600 ; text-align: left ; background-color: rgb(255 , 255 , 255)&quot;&gt;&lt;font style=&quot;font-size: 20px&quot;&gt;Polymorphism&lt;/font&gt;&lt;/span&gt;" style="rounded=0;whiteSpace=wrap;html=1;" vertex="1" parent="1">
          <mxGeometry x="320" y="90" width="175" height="60" as="geometry" />
        </mxCell>
        <mxCell id="bljcUaeu1qeNAfJ_IJkw-2" value="Compile Time" style="rounded=0;whiteSpace=wrap;html=1;" vertex="1" parent="1">
          <mxGeometry x="150" y="220" width="120" height="60" as="geometry" />
        </mxCell>
        <mxCell id="bljcUaeu1qeNAfJ_IJkw-3" value="Run Time" style="rounded=0;whiteSpace=wrap;html=1;" vertex="1" parent="1">
          <mxGeometry x="560" y="220" width="120" height="60" as="geometry" />
        </mxCell>
        <mxCell id="bljcUaeu1qeNAfJ_IJkw-4" value="Function Overloading" style="rounded=1;whiteSpace=wrap;html=1;" vertex="1" parent="1">
          <mxGeometry x="70" y="370" width="120" height="60" as="geometry" />
        </mxCell>
        <mxCell id="bljcUaeu1qeNAfJ_IJkw-5" value="Operator&lt;br&gt;Overloading" style="rounded=1;whiteSpace=wrap;html=1;" vertex="1" parent="1">
          <mxGeometry x="210" y="370" width="120" height="60" as="geometry" />
        </mxCell>
        <mxCell id="bljcUaeu1qeNAfJ_IJkw-7" value="Virtual Function" style="rounded=1;whiteSpace=wrap;html=1;" vertex="1" parent="1">
          <mxGeometry x="560" y="370" width="120" height="60" as="geometry" />
        </mxCell>
        <mxCell id="bljcUaeu1qeNAfJ_IJkw-13" value="" style="endArrow=classic;html=1;entryX=0.5;entryY=0;entryDx=0;entryDy=0;exitX=0.457;exitY=1.033;exitDx=0;exitDy=0;exitPerimeter=0;" edge="1" parent="1" source="bljcUaeu1qeNAfJ_IJkw-1" target="bljcUaeu1qeNAfJ_IJkw-2">
          <mxGeometry width="50" height="50" relative="1" as="geometry">
            <mxPoint x="220" y="200" as="sourcePoint" />
            <mxPoint x="270" y="150" as="targetPoint" />
          </mxGeometry>
        </mxCell>
        <mxCell id="bljcUaeu1qeNAfJ_IJkw-14" value="" style="endArrow=classic;html=1;entryX=0.5;entryY=0;entryDx=0;entryDy=0;exitX=0;exitY=0.5;exitDx=0;exitDy=0;" edge="1" parent="1" target="bljcUaeu1qeNAfJ_IJkw-4">
          <mxGeometry width="50" height="50" relative="1" as="geometry">
            <mxPoint x="195.96" y="280" as="sourcePoint" />
            <mxPoint x="69.99999999999997" y="381.02" as="targetPoint" />
          </mxGeometry>
        </mxCell>
        <mxCell id="bljcUaeu1qeNAfJ_IJkw-15" value="" style="endArrow=classic;html=1;exitX=0.617;exitY=1.05;exitDx=0;exitDy=0;entryX=0.5;entryY=0;entryDx=0;entryDy=0;exitPerimeter=0;" edge="1" parent="1" source="bljcUaeu1qeNAfJ_IJkw-2" target="bljcUaeu1qeNAfJ_IJkw-5">
          <mxGeometry width="50" height="50" relative="1" as="geometry">
            <mxPoint x="240" y="280" as="sourcePoint" />
            <mxPoint x="254.04000000000002" y="381" as="targetPoint" />
          </mxGeometry>
        </mxCell>
        <mxCell id="bljcUaeu1qeNAfJ_IJkw-17" value="" style="endArrow=classic;html=1;entryX=0.5;entryY=0;entryDx=0;entryDy=0;exitX=0.549;exitY=1.05;exitDx=0;exitDy=0;exitPerimeter=0;" edge="1" parent="1" source="bljcUaeu1qeNAfJ_IJkw-1" target="bljcUaeu1qeNAfJ_IJkw-3">
          <mxGeometry width="50" height="50" relative="1" as="geometry">
            <mxPoint x="510" y="170" as="sourcePoint" />
            <mxPoint x="450" y="350" as="targetPoint" />
          </mxGeometry>
        </mxCell>
        <mxCell id="bljcUaeu1qeNAfJ_IJkw-18" value="" style="endArrow=classic;html=1;" edge="1" parent="1" target="bljcUaeu1qeNAfJ_IJkw-7">
          <mxGeometry width="50" height="50" relative="1" as="geometry">
            <mxPoint x="620" y="280" as="sourcePoint" />
            <mxPoint x="450" y="350" as="targetPoint" />
            <Array as="points">
              <mxPoint x="620" y="280" />
            </Array>
          </mxGeometry>
        </mxCell>
      </root>
    </mxGraphModel>
  </diagram>
</mxfile>
